<svg xmlns="http://www.w3.org/2000/svg" viewBox="0 0 512 512" width="512" height="512">
  <rect width="100%" height="100%" fill="#FAF6F0"/>
  <circle cx="256" cy="256" r="210" fill="#E6CCB2"/>
  
  <!-- やおや（黒猫） -->
  <path d="M150 280 L110 200 L180 240 Z" fill="#2B2D42"/>
  <ellipse cx="180" cy="300" rx="55" ry="42" fill="#2B2D42"/>
  <circle cx="160" cy="295" r="14" fill="#FFEE32"/>
  <circle cx="162" cy="297" r="6" fill="#1A1C23"/>
  <circle cx="160" cy="295" r="2" fill="#FFFFFF"/>
  <ellipse cx="138" cy="310" rx="8" ry="4" fill="#FF8093" opacity="0.6"/>

  <!-- やじろう（白キジ） -->
  <path d="M362 280 L402 200 L332 240 Z" fill="#FFFFFF" stroke="#8B5A2B" stroke-width="4"/>
  <ellipse cx="332" cy="300" rx="55" ry="42" fill="#FFFFFF" stroke="#8B5A2B" stroke-width="4"/>
  <path d="M352 260 C354 268 347 272 344 270" fill="none" stroke="#8B5A2B" stroke-width="4"/>
  <circle cx="352" cy="295" r="13" fill="#6B705C" stroke="#8B5A2B" stroke-width="2"/>
  <circle cx="352" cy="295" r="6" fill="#1A1C23"/>
  <circle cx="350" cy="293" r="2" fill="#FFFFFF"/>
  <ellipse cx="374" cy="310" rx="9" ry="5" fill="#FFCCD5" opacity="0.8"/>

  <text x="256" y="420" font-family="sans-serif" font-size="34" font-weight="bold" fill="#7F5539" text-anchor="middle">やおやとやじろう</text>
</svg>
